<mxfile host="app.diagrams.net" modified="2022-10-25T11:49:41.485Z" agent="5.0 (Windows NT 10.0; Win64; x64) AppleWebKit/537.36 (KHTML, like Gecko) Chrome/106.0.0.0 Safari/537.36" etag="ZouYGdmYCISCf2dXW2ZD" version="20.5.0" type="github">
  <diagram id="DVzUvirsD_Z6zAQWNHi3" name="Page-1">
    <mxGraphModel dx="2009" dy="764" grid="1" gridSize="10" guides="1" tooltips="1" connect="1" arrows="1" fold="1" page="1" pageScale="1" pageWidth="827" pageHeight="1169" math="0" shadow="0">
      <root>
        <mxCell id="0" />
        <mxCell id="1" parent="0" />
        <mxCell id="tIFk5cLcAR765XRpQ9IK-1" value="content_type" style="swimlane;fontStyle=0;childLayout=stackLayout;horizontal=1;startSize=26;horizontalStack=0;resizeParent=1;resizeParentMax=0;resizeLast=0;collapsible=1;marginBottom=0;align=center;fontSize=14;fillColor=#B2C9AB;strokeColor=#788AA3;fontColor=#46495D;" vertex="1" parent="1">
          <mxGeometry y="292" width="160" height="86" as="geometry" />
        </mxCell>
        <mxCell id="tIFk5cLcAR765XRpQ9IK-2" value="id                integer" style="text;strokeColor=none;fillColor=none;spacingLeft=4;spacingRight=4;overflow=hidden;rotatable=0;points=[[0,0.5],[1,0.5]];portConstraint=eastwest;fontSize=12;fontColor=#46495D;" vertex="1" parent="tIFk5cLcAR765XRpQ9IK-1">
          <mxGeometry y="26" width="160" height="30" as="geometry" />
        </mxCell>
        <mxCell id="tIFk5cLcAR765XRpQ9IK-3" value="type             string" style="text;strokeColor=none;fillColor=none;spacingLeft=4;spacingRight=4;overflow=hidden;rotatable=0;points=[[0,0.5],[1,0.5]];portConstraint=eastwest;fontSize=12;fontColor=#46495D;" vertex="1" parent="tIFk5cLcAR765XRpQ9IK-1">
          <mxGeometry y="56" width="160" height="30" as="geometry" />
        </mxCell>
        <mxCell id="tIFk5cLcAR765XRpQ9IK-5" value="content" style="swimlane;fontStyle=0;childLayout=stackLayout;horizontal=1;startSize=26;horizontalStack=0;resizeParent=1;resizeParentMax=0;resizeLast=0;collapsible=1;marginBottom=0;align=center;fontSize=14;fillColor=#B2C9AB;strokeColor=#788AA3;fontColor=#46495D;" vertex="1" parent="1">
          <mxGeometry x="-230" y="290" width="160" height="290" as="geometry" />
        </mxCell>
        <mxCell id="tIFk5cLcAR765XRpQ9IK-6" value="id    integer" style="text;strokeColor=none;fillColor=none;spacingLeft=4;spacingRight=4;overflow=hidden;rotatable=0;points=[[0,0.5],[1,0.5]];portConstraint=eastwest;fontSize=12;fontColor=#46495D;" vertex="1" parent="tIFk5cLcAR765XRpQ9IK-5">
          <mxGeometry y="26" width="160" height="30" as="geometry" />
        </mxCell>
        <mxCell id="tIFk5cLcAR765XRpQ9IK-7" value="title                string" style="text;strokeColor=none;fillColor=none;spacingLeft=4;spacingRight=4;overflow=hidden;rotatable=0;points=[[0,0.5],[1,0.5]];portConstraint=eastwest;fontSize=12;fontColor=#46495D;" vertex="1" parent="tIFk5cLcAR765XRpQ9IK-5">
          <mxGeometry y="56" width="160" height="30" as="geometry" />
        </mxCell>
        <mxCell id="tIFk5cLcAR765XRpQ9IK-8" value="type_id          integer" style="text;strokeColor=none;fillColor=none;spacingLeft=4;spacingRight=4;overflow=hidden;rotatable=0;points=[[0,0.5],[1,0.5]];portConstraint=eastwest;fontSize=12;fontColor=#46495D;" vertex="1" parent="tIFk5cLcAR765XRpQ9IK-5">
          <mxGeometry y="86" width="160" height="34" as="geometry" />
        </mxCell>
        <mxCell id="tIFk5cLcAR765XRpQ9IK-20" value="category_id          integer" style="text;strokeColor=none;fillColor=none;spacingLeft=4;spacingRight=4;overflow=hidden;rotatable=0;points=[[0,0.5],[1,0.5]];portConstraint=eastwest;fontSize=12;fontColor=#46495D;" vertex="1" parent="tIFk5cLcAR765XRpQ9IK-5">
          <mxGeometry y="120" width="160" height="34" as="geometry" />
        </mxCell>
        <mxCell id="tIFk5cLcAR765XRpQ9IK-21" value="summary         string" style="text;strokeColor=none;fillColor=none;spacingLeft=4;spacingRight=4;overflow=hidden;rotatable=0;points=[[0,0.5],[1,0.5]];portConstraint=eastwest;fontSize=12;fontColor=#46495D;" vertex="1" parent="tIFk5cLcAR765XRpQ9IK-5">
          <mxGeometry y="154" width="160" height="34" as="geometry" />
        </mxCell>
        <mxCell id="tIFk5cLcAR765XRpQ9IK-22" value="logo_url        string" style="text;strokeColor=none;fillColor=none;spacingLeft=4;spacingRight=4;overflow=hidden;rotatable=0;points=[[0,0.5],[1,0.5]];portConstraint=eastwest;fontSize=12;fontColor=#46495D;" vertex="1" parent="tIFk5cLcAR765XRpQ9IK-5">
          <mxGeometry y="188" width="160" height="34" as="geometry" />
        </mxCell>
        <mxCell id="tIFk5cLcAR765XRpQ9IK-23" value="banner_url        string" style="text;strokeColor=none;fillColor=none;spacingLeft=4;spacingRight=4;overflow=hidden;rotatable=0;points=[[0,0.5],[1,0.5]];portConstraint=eastwest;fontSize=12;fontColor=#46495D;" vertex="1" parent="tIFk5cLcAR765XRpQ9IK-5">
          <mxGeometry y="222" width="160" height="34" as="geometry" />
        </mxCell>
        <mxCell id="tIFk5cLcAR765XRpQ9IK-24" value="thumbnail_url    string" style="text;strokeColor=none;fillColor=none;spacingLeft=4;spacingRight=4;overflow=hidden;rotatable=0;points=[[0,0.5],[1,0.5]];portConstraint=eastwest;fontSize=12;fontColor=#46495D;" vertex="1" parent="tIFk5cLcAR765XRpQ9IK-5">
          <mxGeometry y="256" width="160" height="34" as="geometry" />
        </mxCell>
        <mxCell id="tIFk5cLcAR765XRpQ9IK-25" style="edgeStyle=orthogonalEdgeStyle;rounded=0;orthogonalLoop=1;jettySize=auto;html=1;exitX=1.006;exitY=0.794;exitDx=0;exitDy=0;strokeColor=#788AA3;fontColor=#46495D;fillColor=#B2C9AB;exitPerimeter=0;entryX=0;entryY=0.5;entryDx=0;entryDy=0;" edge="1" parent="1" source="tIFk5cLcAR765XRpQ9IK-8" target="tIFk5cLcAR765XRpQ9IK-3">
          <mxGeometry relative="1" as="geometry" />
        </mxCell>
        <mxCell id="tIFk5cLcAR765XRpQ9IK-26" value="content_category" style="swimlane;fontStyle=0;childLayout=stackLayout;horizontal=1;startSize=26;horizontalStack=0;resizeParent=1;resizeParentMax=0;resizeLast=0;collapsible=1;marginBottom=0;align=center;fontSize=14;fillColor=#B2C9AB;strokeColor=#788AA3;fontColor=#46495D;" vertex="1" parent="1">
          <mxGeometry y="400" width="160" height="86" as="geometry" />
        </mxCell>
        <mxCell id="tIFk5cLcAR765XRpQ9IK-27" value="id                integer" style="text;strokeColor=none;fillColor=none;spacingLeft=4;spacingRight=4;overflow=hidden;rotatable=0;points=[[0,0.5],[1,0.5]];portConstraint=eastwest;fontSize=12;fontColor=#46495D;" vertex="1" parent="tIFk5cLcAR765XRpQ9IK-26">
          <mxGeometry y="26" width="160" height="30" as="geometry" />
        </mxCell>
        <mxCell id="tIFk5cLcAR765XRpQ9IK-28" value="category             string" style="text;strokeColor=none;fillColor=none;spacingLeft=4;spacingRight=4;overflow=hidden;rotatable=0;points=[[0,0.5],[1,0.5]];portConstraint=eastwest;fontSize=12;fontColor=#46495D;" vertex="1" parent="tIFk5cLcAR765XRpQ9IK-26">
          <mxGeometry y="56" width="160" height="30" as="geometry" />
        </mxCell>
        <mxCell id="tIFk5cLcAR765XRpQ9IK-29" style="edgeStyle=orthogonalEdgeStyle;rounded=0;orthogonalLoop=1;jettySize=auto;html=1;exitX=1;exitY=0.5;exitDx=0;exitDy=0;strokeColor=#788AA3;fontColor=#46495D;fillColor=#B2C9AB;" edge="1" parent="1" source="tIFk5cLcAR765XRpQ9IK-22" target="tIFk5cLcAR765XRpQ9IK-27">
          <mxGeometry relative="1" as="geometry" />
        </mxCell>
        <mxCell id="tIFk5cLcAR765XRpQ9IK-31" value="users" style="swimlane;fontStyle=0;childLayout=stackLayout;horizontal=1;startSize=26;horizontalStack=0;resizeParent=1;resizeParentMax=0;resizeLast=0;collapsible=1;marginBottom=0;align=center;fontSize=14;fillColor=#B2C9AB;strokeColor=#788AA3;fontColor=#46495D;" vertex="1" parent="1">
          <mxGeometry x="240" y="248" width="160" height="224" as="geometry" />
        </mxCell>
        <mxCell id="tIFk5cLcAR765XRpQ9IK-32" value="id    integer" style="text;strokeColor=none;fillColor=none;spacingLeft=4;spacingRight=4;overflow=hidden;rotatable=0;points=[[0,0.5],[1,0.5]];portConstraint=eastwest;fontSize=12;fontColor=#46495D;" vertex="1" parent="tIFk5cLcAR765XRpQ9IK-31">
          <mxGeometry y="26" width="160" height="30" as="geometry" />
        </mxCell>
        <mxCell id="tIFk5cLcAR765XRpQ9IK-33" value="name                string" style="text;strokeColor=none;fillColor=none;spacingLeft=4;spacingRight=4;overflow=hidden;rotatable=0;points=[[0,0.5],[1,0.5]];portConstraint=eastwest;fontSize=12;fontColor=#46495D;" vertex="1" parent="tIFk5cLcAR765XRpQ9IK-31">
          <mxGeometry y="56" width="160" height="30" as="geometry" />
        </mxCell>
        <mxCell id="tIFk5cLcAR765XRpQ9IK-34" value="email                string" style="text;strokeColor=none;fillColor=none;spacingLeft=4;spacingRight=4;overflow=hidden;rotatable=0;points=[[0,0.5],[1,0.5]];portConstraint=eastwest;fontSize=12;fontColor=#46495D;" vertex="1" parent="tIFk5cLcAR765XRpQ9IK-31">
          <mxGeometry y="86" width="160" height="34" as="geometry" />
        </mxCell>
        <mxCell id="tIFk5cLcAR765XRpQ9IK-35" value="hashed_password    string" style="text;strokeColor=none;fillColor=none;spacingLeft=4;spacingRight=4;overflow=hidden;rotatable=0;points=[[0,0.5],[1,0.5]];portConstraint=eastwest;fontSize=12;fontColor=#46495D;" vertex="1" parent="tIFk5cLcAR765XRpQ9IK-31">
          <mxGeometry y="120" width="160" height="34" as="geometry" />
        </mxCell>
        <mxCell id="tIFk5cLcAR765XRpQ9IK-36" value="type            string" style="text;strokeColor=none;fillColor=none;spacingLeft=4;spacingRight=4;overflow=hidden;rotatable=0;points=[[0,0.5],[1,0.5]];portConstraint=eastwest;fontSize=12;fontColor=#46495D;" vertex="1" parent="tIFk5cLcAR765XRpQ9IK-31">
          <mxGeometry y="154" width="160" height="36" as="geometry" />
        </mxCell>
        <mxCell id="tIFk5cLcAR765XRpQ9IK-37" value="creation_date    integer" style="text;strokeColor=none;fillColor=none;spacingLeft=4;spacingRight=4;overflow=hidden;rotatable=0;points=[[0,0.5],[1,0.5]];portConstraint=eastwest;fontSize=12;fontColor=#46495D;" vertex="1" parent="tIFk5cLcAR765XRpQ9IK-31">
          <mxGeometry y="190" width="160" height="34" as="geometry" />
        </mxCell>
        <mxCell id="tIFk5cLcAR765XRpQ9IK-40" value="customer_watch_history" style="swimlane;fontStyle=0;childLayout=stackLayout;horizontal=1;startSize=26;horizontalStack=0;resizeParent=1;resizeParentMax=0;resizeLast=0;collapsible=1;marginBottom=0;align=center;fontSize=14;fillColor=#B2C9AB;strokeColor=#788AA3;fontColor=#46495D;" vertex="1" parent="1">
          <mxGeometry x="440" y="240" width="160" height="256" as="geometry" />
        </mxCell>
        <mxCell id="tIFk5cLcAR765XRpQ9IK-41" value="id    integer" style="text;strokeColor=none;fillColor=none;spacingLeft=4;spacingRight=4;overflow=hidden;rotatable=0;points=[[0,0.5],[1,0.5]];portConstraint=eastwest;fontSize=12;fontColor=#46495D;" vertex="1" parent="tIFk5cLcAR765XRpQ9IK-40">
          <mxGeometry y="26" width="160" height="30" as="geometry" />
        </mxCell>
        <mxCell id="tIFk5cLcAR765XRpQ9IK-42" value="user_id        string" style="text;strokeColor=none;fillColor=none;spacingLeft=4;spacingRight=4;overflow=hidden;rotatable=0;points=[[0,0.5],[1,0.5]];portConstraint=eastwest;fontSize=12;fontColor=#46495D;" vertex="1" parent="tIFk5cLcAR765XRpQ9IK-40">
          <mxGeometry y="56" width="160" height="30" as="geometry" />
        </mxCell>
        <mxCell id="tIFk5cLcAR765XRpQ9IK-43" value="content_id          integer" style="text;strokeColor=none;fillColor=none;spacingLeft=4;spacingRight=4;overflow=hidden;rotatable=0;points=[[0,0.5],[1,0.5]];portConstraint=eastwest;fontSize=12;fontColor=#46495D;" vertex="1" parent="tIFk5cLcAR765XRpQ9IK-40">
          <mxGeometry y="86" width="160" height="34" as="geometry" />
        </mxCell>
        <mxCell id="tIFk5cLcAR765XRpQ9IK-44" value="episode" style="text;strokeColor=none;fillColor=none;spacingLeft=4;spacingRight=4;overflow=hidden;rotatable=0;points=[[0,0.5],[1,0.5]];portConstraint=eastwest;fontSize=12;fontColor=#46495D;" vertex="1" parent="tIFk5cLcAR765XRpQ9IK-40">
          <mxGeometry y="120" width="160" height="34" as="geometry" />
        </mxCell>
        <mxCell id="tIFk5cLcAR765XRpQ9IK-47" value="last_duration" style="text;strokeColor=none;fillColor=none;spacingLeft=4;spacingRight=4;overflow=hidden;rotatable=0;points=[[0,0.5],[1,0.5]];portConstraint=eastwest;fontSize=12;fontColor=#46495D;" vertex="1" parent="tIFk5cLcAR765XRpQ9IK-40">
          <mxGeometry y="154" width="160" height="34" as="geometry" />
        </mxCell>
        <mxCell id="tIFk5cLcAR765XRpQ9IK-46" value="date" style="text;strokeColor=none;fillColor=none;spacingLeft=4;spacingRight=4;overflow=hidden;rotatable=0;points=[[0,0.5],[1,0.5]];portConstraint=eastwest;fontSize=12;fontColor=#46495D;" vertex="1" parent="tIFk5cLcAR765XRpQ9IK-40">
          <mxGeometry y="188" width="160" height="34" as="geometry" />
        </mxCell>
        <mxCell id="tIFk5cLcAR765XRpQ9IK-45" value="season" style="text;strokeColor=none;fillColor=none;spacingLeft=4;spacingRight=4;overflow=hidden;rotatable=0;points=[[0,0.5],[1,0.5]];portConstraint=eastwest;fontSize=12;fontColor=#46495D;" vertex="1" parent="tIFk5cLcAR765XRpQ9IK-40">
          <mxGeometry y="222" width="160" height="34" as="geometry" />
        </mxCell>
        <mxCell id="tIFk5cLcAR765XRpQ9IK-49" style="edgeStyle=orthogonalEdgeStyle;rounded=0;orthogonalLoop=1;jettySize=auto;html=1;exitX=1;exitY=0.5;exitDx=0;exitDy=0;entryX=0;entryY=0.5;entryDx=0;entryDy=0;strokeColor=#788AA3;fontColor=#46495D;fillColor=#B2C9AB;" edge="1" parent="1" source="tIFk5cLcAR765XRpQ9IK-33" target="tIFk5cLcAR765XRpQ9IK-41">
          <mxGeometry relative="1" as="geometry" />
        </mxCell>
        <mxCell id="tIFk5cLcAR765XRpQ9IK-50" value="content_top_ten" style="swimlane;fontStyle=0;childLayout=stackLayout;horizontal=1;startSize=26;horizontalStack=0;resizeParent=1;resizeParentMax=0;resizeLast=0;collapsible=1;marginBottom=0;align=center;fontSize=14;fillColor=#B2C9AB;strokeColor=#788AA3;fontColor=#46495D;" vertex="1" parent="1">
          <mxGeometry y="160" width="160" height="90" as="geometry" />
        </mxCell>
        <mxCell id="tIFk5cLcAR765XRpQ9IK-54" value="id          integer" style="text;strokeColor=none;fillColor=none;spacingLeft=4;spacingRight=4;overflow=hidden;rotatable=0;points=[[0,0.5],[1,0.5]];portConstraint=eastwest;fontSize=12;fontColor=#46495D;" vertex="1" parent="tIFk5cLcAR765XRpQ9IK-50">
          <mxGeometry y="26" width="160" height="34" as="geometry" />
        </mxCell>
        <mxCell id="tIFk5cLcAR765XRpQ9IK-51" value="content_id    integer" style="text;strokeColor=none;fillColor=none;spacingLeft=4;spacingRight=4;overflow=hidden;rotatable=0;points=[[0,0.5],[1,0.5]];portConstraint=eastwest;fontSize=12;fontColor=#46495D;" vertex="1" parent="tIFk5cLcAR765XRpQ9IK-50">
          <mxGeometry y="60" width="160" height="30" as="geometry" />
        </mxCell>
        <mxCell id="tIFk5cLcAR765XRpQ9IK-69" value="details_content" style="swimlane;fontStyle=0;childLayout=stackLayout;horizontal=1;startSize=26;horizontalStack=0;resizeParent=1;resizeParentMax=0;resizeLast=0;collapsible=1;marginBottom=0;align=center;fontSize=14;fillColor=#B2C9AB;strokeColor=#788AA3;fontColor=#46495D;" vertex="1" parent="1">
          <mxGeometry y="550" width="160" height="120" as="geometry" />
        </mxCell>
        <mxCell id="tIFk5cLcAR765XRpQ9IK-70" value="id          integer" style="text;strokeColor=none;fillColor=none;spacingLeft=4;spacingRight=4;overflow=hidden;rotatable=0;points=[[0,0.5],[1,0.5]];portConstraint=eastwest;fontSize=12;fontColor=#46495D;" vertex="1" parent="tIFk5cLcAR765XRpQ9IK-69">
          <mxGeometry y="26" width="160" height="34" as="geometry" />
        </mxCell>
        <mxCell id="tIFk5cLcAR765XRpQ9IK-71" value="content_id    integer" style="text;strokeColor=none;fillColor=none;spacingLeft=4;spacingRight=4;overflow=hidden;rotatable=0;points=[[0,0.5],[1,0.5]];portConstraint=eastwest;fontSize=12;fontColor=#46495D;" vertex="1" parent="tIFk5cLcAR765XRpQ9IK-69">
          <mxGeometry y="60" width="160" height="30" as="geometry" />
        </mxCell>
        <mxCell id="tIFk5cLcAR765XRpQ9IK-74" value="video_code    string" style="text;strokeColor=none;fillColor=none;spacingLeft=4;spacingRight=4;overflow=hidden;rotatable=0;points=[[0,0.5],[1,0.5]];portConstraint=eastwest;fontSize=12;fontColor=#46495D;" vertex="1" parent="tIFk5cLcAR765XRpQ9IK-69">
          <mxGeometry y="90" width="160" height="30" as="geometry" />
        </mxCell>
        <mxCell id="tIFk5cLcAR765XRpQ9IK-72" style="edgeStyle=orthogonalEdgeStyle;rounded=0;orthogonalLoop=1;jettySize=auto;html=1;exitX=0;exitY=0.5;exitDx=0;exitDy=0;entryX=1.019;entryY=0.8;entryDx=0;entryDy=0;entryPerimeter=0;strokeColor=#788AA3;fontColor=#46495D;fillColor=#B2C9AB;" edge="1" parent="1" source="tIFk5cLcAR765XRpQ9IK-54" target="tIFk5cLcAR765XRpQ9IK-6">
          <mxGeometry relative="1" as="geometry" />
        </mxCell>
        <mxCell id="tIFk5cLcAR765XRpQ9IK-73" style="edgeStyle=orthogonalEdgeStyle;rounded=0;orthogonalLoop=1;jettySize=auto;html=1;exitX=0;exitY=0.5;exitDx=0;exitDy=0;entryX=1.006;entryY=0.794;entryDx=0;entryDy=0;entryPerimeter=0;strokeColor=#788AA3;fontColor=#46495D;fillColor=#B2C9AB;" edge="1" parent="1" source="tIFk5cLcAR765XRpQ9IK-70" target="tIFk5cLcAR765XRpQ9IK-23">
          <mxGeometry relative="1" as="geometry" />
        </mxCell>
        <mxCell id="tIFk5cLcAR765XRpQ9IK-76" value="detail_series" style="swimlane;fontStyle=0;childLayout=stackLayout;horizontal=1;startSize=26;horizontalStack=0;resizeParent=1;resizeParentMax=0;resizeLast=0;collapsible=1;marginBottom=0;align=center;fontSize=14;fillColor=#B2C9AB;strokeColor=#788AA3;fontColor=#46495D;" vertex="1" parent="1">
          <mxGeometry x="-450" y="292" width="160" height="290" as="geometry" />
        </mxCell>
        <mxCell id="tIFk5cLcAR765XRpQ9IK-77" value="id    integer" style="text;strokeColor=none;fillColor=none;spacingLeft=4;spacingRight=4;overflow=hidden;rotatable=0;points=[[0,0.5],[1,0.5]];portConstraint=eastwest;fontSize=12;fontColor=#46495D;" vertex="1" parent="tIFk5cLcAR765XRpQ9IK-76">
          <mxGeometry y="26" width="160" height="30" as="geometry" />
        </mxCell>
        <mxCell id="tIFk5cLcAR765XRpQ9IK-78" value="content_id    integer" style="text;strokeColor=none;fillColor=none;spacingLeft=4;spacingRight=4;overflow=hidden;rotatable=0;points=[[0,0.5],[1,0.5]];portConstraint=eastwest;fontSize=12;fontColor=#46495D;" vertex="1" parent="tIFk5cLcAR765XRpQ9IK-76">
          <mxGeometry y="56" width="160" height="30" as="geometry" />
        </mxCell>
        <mxCell id="tIFk5cLcAR765XRpQ9IK-79" value="season_number    integer" style="text;strokeColor=none;fillColor=none;spacingLeft=4;spacingRight=4;overflow=hidden;rotatable=0;points=[[0,0.5],[1,0.5]];portConstraint=eastwest;fontSize=12;fontColor=#46495D;" vertex="1" parent="tIFk5cLcAR765XRpQ9IK-76">
          <mxGeometry y="86" width="160" height="34" as="geometry" />
        </mxCell>
        <mxCell id="tIFk5cLcAR765XRpQ9IK-80" value="episode_number    integer" style="text;strokeColor=none;fillColor=none;spacingLeft=4;spacingRight=4;overflow=hidden;rotatable=0;points=[[0,0.5],[1,0.5]];portConstraint=eastwest;fontSize=12;fontColor=#46495D;" vertex="1" parent="tIFk5cLcAR765XRpQ9IK-76">
          <mxGeometry y="120" width="160" height="34" as="geometry" />
        </mxCell>
        <mxCell id="tIFk5cLcAR765XRpQ9IK-81" value="title                string" style="text;strokeColor=none;fillColor=none;spacingLeft=4;spacingRight=4;overflow=hidden;rotatable=0;points=[[0,0.5],[1,0.5]];portConstraint=eastwest;fontSize=12;fontColor=#46495D;" vertex="1" parent="tIFk5cLcAR765XRpQ9IK-76">
          <mxGeometry y="154" width="160" height="34" as="geometry" />
        </mxCell>
        <mxCell id="tIFk5cLcAR765XRpQ9IK-82" value="summary         string" style="text;strokeColor=none;fillColor=none;spacingLeft=4;spacingRight=4;overflow=hidden;rotatable=0;points=[[0,0.5],[1,0.5]];portConstraint=eastwest;fontSize=12;fontColor=#46495D;" vertex="1" parent="tIFk5cLcAR765XRpQ9IK-76">
          <mxGeometry y="188" width="160" height="34" as="geometry" />
        </mxCell>
        <mxCell id="tIFk5cLcAR765XRpQ9IK-84" value="thumbnail_url    string" style="text;strokeColor=none;fillColor=none;spacingLeft=4;spacingRight=4;overflow=hidden;rotatable=0;points=[[0,0.5],[1,0.5]];portConstraint=eastwest;fontSize=12;fontColor=#46495D;" vertex="1" parent="tIFk5cLcAR765XRpQ9IK-76">
          <mxGeometry y="222" width="160" height="34" as="geometry" />
        </mxCell>
        <mxCell id="tIFk5cLcAR765XRpQ9IK-83" value="video_code    string" style="text;strokeColor=none;fillColor=none;spacingLeft=4;spacingRight=4;overflow=hidden;rotatable=0;points=[[0,0.5],[1,0.5]];portConstraint=eastwest;fontSize=12;fontColor=#46495D;" vertex="1" parent="tIFk5cLcAR765XRpQ9IK-76">
          <mxGeometry y="256" width="160" height="34" as="geometry" />
        </mxCell>
        <mxCell id="tIFk5cLcAR765XRpQ9IK-85" style="edgeStyle=orthogonalEdgeStyle;rounded=0;orthogonalLoop=1;jettySize=auto;html=1;exitX=1;exitY=0.5;exitDx=0;exitDy=0;entryX=0;entryY=0.5;entryDx=0;entryDy=0;strokeColor=#788AA3;fontColor=#46495D;fillColor=#B2C9AB;" edge="1" parent="1" source="tIFk5cLcAR765XRpQ9IK-80" target="tIFk5cLcAR765XRpQ9IK-21">
          <mxGeometry relative="1" as="geometry" />
        </mxCell>
      </root>
    </mxGraphModel>
  </diagram>
</mxfile>
